<svg xmlns="http://www.w3.org/2000/svg" width="512" height="512" viewBox="0 0 512 512" version="1.1">
	<path d="M 362.208 29.556 C 353.874 31.799, 347.167 34.913, 338.085 40.756 L 329.671 46.170 318.085 43.176 C 297.945 37.971, 293.954 37.498, 270.500 37.531 C 251.394 37.557, 247.124 37.861, 238.042 39.842 C 229.749 41.650, 211.256 47.059, 204.378 49.687 C 203.761 49.923, 201.066 48.221, 198.390 45.905 C 179.577 29.622, 148.974 27.617, 126.272 41.179 C 118.862 45.606, 109.291 55.112, 104.798 62.510 C 98.495 72.885, 95.682 82.844, 95.619 95 C 95.528 112.370, 100.473 123.584, 113.665 135.927 L 121.967 143.694 118.572 152.112 C 109.740 174.016, 108.855 198.698, 116.120 220.500 C 119.848 231.687, 124.303 239.864, 133.133 251.725 C 139.757 260.623, 141.383 263.797, 138.750 262.687 C 127.871 258.098, 123.005 256.389, 115.122 254.384 C 73.373 243.770, 32.348 267.298, 19.019 309.500 C 15.671 320.101, 15.216 335.824, 17.905 348 C 24.942 379.858, 50.486 405.206, 81.954 411.558 C 93.968 413.982, 108.808 413.180, 119.329 409.536 C 123.635 408.045, 127.306 406.977, 127.487 407.162 C 127.667 407.348, 129.071 410.200, 130.607 413.500 C 132.143 416.800, 133.558 419.797, 133.752 420.159 C 133.947 420.521, 132.620 421.139, 130.803 421.532 C 116.407 424.645, 106.565 438.097, 106.641 454.554 C 106.721 471.763, 118.637 483.764, 140.375 488.530 C 151.532 490.976, 170.052 490.130, 182.802 486.592 C 199.447 481.973, 208.896 477.064, 222.815 465.800 C 235.039 455.910, 235.224 455.854, 248.500 458.070 C 262.385 460.388, 290.762 460.606, 302.500 458.485 C 314.600 456.299, 314.771 456.337, 324.074 463.365 C 333.593 470.556, 340.340 474.210, 350.500 477.676 C 376.188 486.440, 404.055 484.092, 421.480 471.697 C 433.107 463.425, 438.674 452.646, 437.777 440.143 C 437.009 429.448, 430.634 419.479, 421.572 414.804 C 416.390 412.131, 407.643 411.402, 402.459 413.211 L 398.419 414.622 404.205 403.061 C 409.426 392.627, 412.947 381.967, 414.467 371.984 C 414.948 368.828, 415.509 368.289, 419.957 366.709 C 430.177 363.079, 437.815 354.846, 441.558 343.424 C 444.170 335.454, 444.171 318.388, 441.559 308.500 C 437.191 291.965, 428.669 276.210, 417.732 264.450 L 410.963 257.172 416.314 249.715 C 427.425 234.229, 435.819 214.265, 437.995 198.148 C 440.035 183.045, 436.620 160.949, 429.529 143.362 C 427.588 138.549, 426 134.112, 426 133.502 C 426 132.892, 427.600 130.842, 429.556 128.946 C 445.450 113.543, 448.184 88.294, 436.540 64.462 C 427.761 46.497, 412.628 34.331, 392.500 29.059 C 386.814 27.570, 368.469 27.871, 362.208 29.556 M 366.912 41.051 C 360.871 42.483, 353.001 45.903, 348.290 49.145 L 343.807 52.229 354.552 57.938 L 365.298 63.646 370.899 60.598 C 375.817 57.920, 377.475 57.548, 384.500 57.548 C 394.048 57.546, 399.579 59.826, 406.611 66.659 C 417.686 77.424, 419.631 93.843, 410.973 103.500 C 409.234 105.440, 409.296 105.691, 413.039 111.847 C 415.161 115.338, 417.083 118.713, 417.309 119.347 C 418.019 121.339, 423.280 116.701, 426.673 111.092 C 436.480 94.879, 431.907 71.640, 415.742 55.549 C 408.058 47.901, 401.575 44.166, 391.368 41.508 C 385.167 39.892, 372.777 39.661, 366.912 41.051 M 146.251 46.545 C 130.630 50.751, 117.260 62.648, 110.876 78.021 C 108.971 82.608, 108.592 85.381, 108.550 95.048 C 108.501 106.385, 108.568 106.734, 112.182 114.048 C 115.767 121.303, 122.791 129.562, 127.283 131.804 C 128.502 132.412, 131.188 133.583, 133.250 134.404 C 138.226 136.386, 138.134 138.315, 132.508 149.874 C 119.555 176.487, 119.901 205.989, 133.468 231.806 C 145.831 255.333, 168.298 272.411, 224.500 300.999 C 256.418 317.236, 272.978 321.675, 298 320.704 C 338.012 319.151, 363.372 302.358, 400.574 252.784 C 409.642 240.701, 419.290 222.907, 423.500 210.500 C 427.156 199.728, 428.043 182.297, 425.566 169.934 C 420.334 143.828, 404.876 111.767, 389.542 95.215 C 374.265 78.724, 343.976 61.285, 319 54.598 C 301.732 49.976, 291.696 48.675, 273 48.636 C 248.155 48.584, 230.923 52.054, 208.256 61.675 L 200.012 65.174 194.888 59.568 C 183.964 47.616, 163.061 42.019, 146.251 46.545 M 146.698 63.384 C 133.846 68.171, 125.658 79.910, 125.693 93.500 C 125.728 106.888, 132.958 116.978, 142.527 116.993 C 147.878 117.002, 150.890 114.820, 150.781 111.013 C 150.616 105.194, 161.913 92.889, 175.296 84.310 C 180.196 81.169, 182.007 79.460, 181.588 78.368 C 181.265 77.526, 181 76.425, 181 75.921 C 181 74.090, 173.534 66.802, 169.568 64.762 C 164.361 62.082, 152.165 61.348, 146.698 63.384 M 376.625 64.408 C 374.493 65.201, 372.336 66.264, 371.830 66.770 C 371.270 67.330, 373.766 69.842, 378.205 73.187 C 386.052 79.100, 393.916 86.513, 400.816 94.503 L 405.132 99.500 407.566 96.694 C 412.719 90.755, 410.531 78.685, 402.923 71.077 C 396.100 64.254, 384.764 61.379, 376.625 64.408 M 226.951 68.401 C 224.448 69.055, 220.790 70.584, 218.822 71.801 C 214.864 74.247, 207 82.361, 207 83.998 C 207 84.571, 208.904 84.069, 211.232 82.882 C 223.367 76.691, 248.387 81.127, 259.875 91.506 C 264.381 95.577, 265.231 94.532, 261.883 89.039 C 258.518 83.520, 244.490 70.307, 240.809 69.190 C 234.854 67.382, 231.569 67.195, 226.951 68.401 M 146.399 69.906 C 141.155 72.288, 135.288 78.155, 132.906 83.399 C 129.361 91.205, 130.916 103.088, 136.222 108.736 C 139.514 112.240, 141.222 111.526, 144.485 105.283 C 148.600 97.408, 157.808 87.885, 166.616 82.395 C 170.677 79.864, 174 77.243, 174 76.571 C 174 74.746, 169.960 71.299, 165.768 69.548 C 160.707 67.433, 151.469 67.604, 146.399 69.906 M 331.440 74.888 C 325.437 77.615, 317.095 89.395, 317.022 95.250 C 316.991 97.684, 317.753 97.447, 320.513 94.167 C 324.041 89.974, 334.171 84.937, 340.282 84.336 C 343.152 84.054, 347.513 84.288, 349.973 84.856 C 352.433 85.423, 354.616 85.718, 354.823 85.510 C 355.722 84.611, 348.170 76.620, 344.790 74.894 C 340.157 72.529, 336.637 72.527, 331.440 74.888 M 214.698 107.096 C 207.049 108.896, 199.524 113.325, 192.890 119.930 C 182.358 130.419, 177.656 141.953, 177.767 157.029 C 177.907 176.019, 187.419 191.606, 203.500 199.196 C 210.098 202.310, 211.132 202.500, 221.500 202.500 C 231.812 202.500, 232.925 202.299, 239.288 199.285 C 256.079 191.332, 265.981 175.270, 265.973 156 C 265.964 132.406, 252.751 112.480, 233.764 107.425 C 227.911 105.867, 220.466 105.738, 214.698 107.096 M 350.350 109.474 C 343.737 112.819, 336.536 120.538, 333.388 127.657 C 329.068 137.425, 328.520 151.163, 331.979 162.993 C 332.540 164.915, 333 166.567, 333 166.664 C 333 166.761, 331.699 167.127, 330.108 167.476 C 328.517 167.826, 325.170 169.409, 322.669 170.995 L 318.122 173.878 312.811 171.309 C 307.118 168.556, 297.696 167.272, 291.589 168.417 C 289.424 168.823, 286.392 170.609, 283.993 172.892 C 280.436 176.276, 280 177.206, 280 181.411 C 280 187.165, 281.161 189.515, 284.980 191.490 C 288.914 193.524, 291.275 193.390, 292.737 191.050 C 295.662 186.366, 307.355 187.831, 309.355 193.130 C 310.628 196.502, 311.916 196.376, 314 192.678 C 315.834 189.425, 314.818 187.401, 309.894 184.500 C 307.166 182.892, 304.650 182.492, 297.069 182.458 C 287.004 182.414, 285.753 181.761, 288.717 178.102 C 292.792 173.072, 305.527 173.798, 314.071 179.547 L 319.014 182.874 322.257 179.864 C 329.994 172.680, 339.133 170.811, 342.927 175.635 C 346.677 180.401, 345.810 181.686, 339.171 181.206 C 330.164 180.554, 322 185.554, 322 191.723 C 322 192.975, 322.305 194, 322.677 194 C 323.049 194, 325.692 192.390, 328.550 190.421 C 334.672 186.205, 339.281 185.955, 339.828 189.811 C 340.231 192.658, 342.636 193.708, 345.154 192.136 C 346.640 191.208, 348.243 191.305, 352.680 192.595 C 365.101 196.206, 381.032 192.822, 388.876 184.907 C 393.491 180.250, 398.710 168.900, 399.983 160.750 C 402.421 145.150, 395.966 127.448, 383.875 116.577 C 376.784 110.202, 370.870 107.609, 362.500 107.206 C 356.535 106.919, 354.738 107.254, 350.350 109.474 M 222.329 131.482 C 218.565 133.091, 217 135.654, 217 140.212 C 217 144.765, 219.368 147.791, 223.545 148.574 C 233.324 150.409, 239.750 139.655, 232.698 133.257 C 229.655 130.496, 226.071 129.883, 222.329 131.482 M 363.825 131.038 C 362.904 131.576, 361.653 133.522, 361.045 135.364 C 358.976 141.632, 363.130 147, 370.048 147 C 373.729 147, 376.986 144.523, 378.341 140.694 C 379.201 138.265, 376.653 132.420, 374.150 131.080 C 371.660 129.748, 366.076 129.725, 363.825 131.038 M 395.937 182.576 C 394.853 183.883, 394.874 184.308, 396.064 185.061 C 396.854 185.561, 398.175 185.978, 399 185.988 C 401.607 186.022, 407.013 189.904, 407.974 192.433 C 408.542 193.926, 408.539 196.120, 407.967 198.116 C 407.454 199.904, 407.195 201.528, 407.392 201.725 C 408.227 202.560, 413.835 196.794, 414.408 194.511 C 415.319 190.880, 412.624 185.351, 408.810 183.026 C 404.782 180.570, 397.804 180.326, 395.937 182.576 M 398.965 191.250 C 398.870 197.248, 392.121 202.595, 379.588 206.600 C 372.946 208.722, 369.533 209.189, 360.500 209.208 C 346.842 209.237, 338.243 207.352, 326.757 201.812 L 318.013 197.595 314.757 200.696 C 309.295 205.895, 296.653 213.529, 287.307 217.269 C 253.533 230.787, 217.083 231.339, 189.826 218.746 C 181.006 214.671, 177.772 211.147, 178.201 206.080 C 178.466 202.955, 178.923 202.435, 182.208 201.518 C 186.770 200.245, 186.033 198.248, 180.546 197.010 C 172.482 195.192, 161 201.098, 161 207.065 C 161 209.814, 163.577 214.624, 165.431 215.335 C 166.606 215.786, 166.907 215.151, 166.805 212.444 C 166.665 208.712, 170.052 204, 172.874 204 C 174.061 204, 174.133 204.267, 173.200 205.200 C 171.385 207.015, 171.768 213.107, 173.919 216.634 C 176.292 220.526, 180.127 223.425, 191 229.549 C 215.605 243.407, 227.003 251.600, 244.537 268.030 C 257.938 280.587, 267.610 287.871, 276.500 292.100 C 295.048 300.924, 318.344 301.297, 337.365 293.075 C 355.408 285.276, 375.316 264.075, 384.012 243.398 C 387.917 234.113, 390.981 222.216, 390.992 216.298 C 390.999 212.463, 391.383 211.833, 395.385 209.079 C 404.805 202.598, 407.586 195.778, 402.686 191.174 C 399.757 188.423, 399.009 188.438, 398.965 191.250 M 310.250 215.307 C 305.163 218.151, 301 221.044, 301 221.736 C 301 224.336, 308.206 230.978, 312.191 232.052 C 319.565 234.037, 323.630 231.773, 327.873 223.318 C 329.027 221.018, 330.470 218.828, 331.079 218.451 C 331.688 218.075, 334.057 219.593, 336.343 221.825 C 343.604 228.914, 351.933 230.220, 357.077 225.077 C 360.140 222.014, 360.870 219.183, 358.750 218.585 C 358.063 218.391, 352.775 217.698, 347 217.045 C 338.084 216.037, 333.661 214.949, 321 210.646 C 320.175 210.366, 315.337 212.463, 310.250 215.307 M 370 217.965 C 370 219.696, 373.582 221.018, 374.847 219.753 C 376.745 217.855, 376.172 217, 373 217 C 371.350 217, 370 217.434, 370 217.965 M 285.500 225.989 C 277.751 228.684, 277.588 228.806, 280.294 229.878 C 287.671 232.798, 292.440 232.029, 295.451 227.434 C 298.888 222.188, 297.151 221.936, 285.500 225.989 M 257.500 260.307 C 255.300 260.999, 253.500 262.075, 253.500 262.698 C 253.500 265.247, 268.731 277.162, 277.500 281.473 C 288.840 287.048, 296.554 289.003, 307.144 288.988 C 320.115 288.970, 330.322 285.612, 336.653 279.280 C 340.523 275.410, 340.933 272.042, 338.099 267.395 C 334.008 260.686, 322.645 257.064, 316.179 260.408 C 312.347 262.389, 312.276 262.971, 315.500 266 C 317.945 268.297, 318.609 271.249, 317.393 274.418 C 316.431 276.925, 315.429 276.336, 311.607 271.016 C 304.548 261.190, 294.711 256.860, 287.386 260.353 C 283.456 262.227, 283.194 263.513, 286.107 266.614 C 287.813 268.430, 288.039 269.383, 287.295 271.616 C 285.850 275.949, 284.402 275.532, 280.676 269.708 C 278.772 266.731, 275.649 263.328, 273.737 262.146 C 269.354 259.438, 262.676 258.681, 257.500 260.307 M 399.144 271.541 C 396.865 274.589, 395 277.331, 395 277.636 C 395 277.940, 398.432 281.394, 402.626 285.311 C 411.551 293.646, 419.211 304.108, 421.554 311.164 C 424.008 318.552, 423.237 328.533, 419.811 333.709 C 416.256 339.081, 408.898 343.812, 402.851 344.614 L 398 345.258 398 350.180 C 398 354.851, 398.177 355.176, 401.468 356.551 C 409.058 359.723, 419.508 357.444, 425.196 351.376 C 426.679 349.794, 428.929 346.250, 430.196 343.500 C 432.187 339.179, 432.486 337.006, 432.395 327.500 C 432.239 311.005, 427.258 296.129, 416.664 280.512 C 412.367 274.177, 405.240 266, 404.017 266 C 403.616 266, 401.423 268.494, 399.144 271.541 M 147.946 272.207 C 132.475 287.675, 123.093 310.851, 121.390 337.810 C 120.332 354.551, 124.009 371.950, 130.349 380.208 C 136.162 387.780, 140.306 390.361, 147.370 390.811 C 155.100 391.303, 160.676 388.842, 164.466 383.265 C 168.178 377.802, 167.859 376, 163.182 376 C 157.129 376, 149.758 373.341, 145.348 369.566 C 136.407 361.912, 134.430 349.493, 139.450 332.500 C 144.520 315.337, 150.373 303.705, 161.248 289.178 C 164.410 284.955, 166.997 281.179, 166.998 280.787 C 166.999 280.395, 164.243 278.145, 160.874 275.787 C 157.504 273.429, 153.958 270.918, 152.993 270.207 C 151.476 269.089, 150.795 269.359, 147.946 272.207 M 75.300 291.862 C 51.152 300.206, 40.709 330.321, 53.691 354.174 C 62.927 371.143, 86.427 381.626, 103.719 376.491 C 106.514 375.661, 109.779 374.190, 110.975 373.222 C 113.135 371.472, 113.139 371.408, 111.577 362.481 C 108.756 346.352, 109.603 330.061, 114.221 311.613 L 116.445 302.727 111.643 298.379 C 103.082 290.628, 87.142 287.770, 75.300 291.862 M 198.580 304.687 C 193.880 311.094, 188.694 321.021, 185.881 329 C 183.881 334.671, 183.582 337.477, 183.540 351 C 183.506 361.581, 183.030 368.008, 182.038 371.250 C 180.826 375.212, 180.796 376.788, 181.855 380.750 C 185.929 395.992, 191.960 405.960, 205 419.001 C 219.332 433.336, 231.176 439.953, 252.869 445.748 C 261.297 448, 264.435 448.317, 278 448.283 C 291.971 448.248, 294.657 447.944, 305.227 445.197 C 331.307 438.419, 351.786 425.030, 367.044 404.782 C 377.326 391.135, 383.967 374.674, 385.538 358.936 C 387.238 341.903, 380.318 314.184, 371.729 303.627 L 369.392 300.754 358.446 308.979 C 352.426 313.504, 347.332 317.364, 347.127 317.559 C 346.922 317.753, 348.029 322.320, 349.587 327.706 C 352.124 336.475, 352.425 339.071, 352.460 352.500 C 352.498 366.780, 352.089 370.248, 348.393 387 C 345.992 397.883, 339.576 409.491, 331.531 417.505 C 320.036 428.958, 307.873 434.011, 291.856 433.988 C 278.396 433.969, 269.860 430.994, 262.167 423.641 C 257.939 419.600, 253.346 412.320, 254.375 411.291 C 254.659 411.008, 256.828 412.364, 259.195 414.304 C 268.493 421.923, 278.174 425.239, 291 425.199 C 300.361 425.170, 308.999 422.949, 316.228 418.712 C 323.949 414.188, 334.232 401.710, 336.511 394.102 C 337.127 392.042, 336.401 392.382, 331.364 396.508 C 320.596 405.330, 308.370 409.457, 293.500 409.289 C 278.469 409.120, 267.263 404.334, 257.528 393.927 C 252.610 388.669, 248.595 381.023, 247.457 374.750 C 246.469 369.299, 248.134 370.032, 253.352 377.344 C 265.994 395.062, 280.680 402.161, 300.166 399.976 C 325.540 397.130, 344 377.902, 344 354.318 C 344 350.843, 343.652 348, 343.227 348 C 342.802 348, 341.568 349.647, 340.484 351.660 C 337.426 357.338, 328.101 366.172, 321.489 369.655 C 313.156 374.044, 305.994 375.969, 295.500 376.640 C 276.122 377.879, 259.684 370.091, 250.076 355.118 C 246.633 349.753, 243.552 338.988, 244.554 335.829 C 245.130 334.015, 245.781 334.730, 248.847 340.538 C 257.853 357.596, 274.209 368.048, 291.799 367.983 C 298.630 367.957, 309.671 365.396, 315.732 362.430 C 322.645 359.048, 330.931 351.384, 334.210 345.339 C 336.931 340.323, 339.428 329.487, 338.520 326.633 C 338.234 325.735, 337.789 324.325, 337.531 323.499 C 337.137 322.237, 336.140 322.404, 331.281 324.547 C 328.101 325.949, 324.483 328.389, 323.240 329.969 C 320.221 333.804, 312.416 338.502, 304.794 341.069 C 287.504 346.894, 263.824 340.541, 253.278 327.248 C 251.135 324.547, 248.455 322.601, 245.278 321.439 C 230.276 315.952, 224.627 313.194, 206.805 302.652 L 202.110 299.875 198.580 304.687 M 269.500 329.941 C 280.498 335.269, 293.359 336.121, 305.500 332.327 C 315.755 329.122, 314.002 328.500, 294.716 328.500 C 284.697 328.500, 273.575 328.170, 270 327.767 L 263.500 327.035 269.500 329.941 M 395.548 366.215 C 395.319 366.922, 394.656 369.867, 394.074 372.761 C 391.104 387.533, 383.092 401.987, 369.138 417.750 C 364.634 422.837, 361.455 427, 362.072 427 C 364.865 427, 379.895 418.101, 383.558 414.278 C 391.929 405.541, 400.304 386.953, 401.644 374.135 C 402.260 368.235, 402.241 368.176, 399.115 366.559 C 396.652 365.286, 395.873 365.211, 395.548 366.215 M 415.413 431.507 C 419.810 435.582, 422.225 442.303, 422.278 450.614 C 422.328 458.339, 423.227 459.095, 425.602 453.410 C 427.673 448.453, 427.384 440.143, 425.005 436.241 C 422.823 432.662, 417.574 429.010, 414.604 429.004 C 412.959 429, 413.066 429.332, 415.413 431.507 M 391.236 437.038 C 380.572 443.153, 373.740 457.655, 377.398 466.409 C 379.425 471.261, 384.447 473.458, 391.591 472.618 C 405.528 470.980, 413.406 462.995, 413.413 450.500 C 413.417 443.366, 411.289 438.757, 406.701 435.960 C 402.139 433.178, 397.389 433.509, 391.236 437.038 M 128.450 439.407 C 117.934 443.987, 114.926 460.772, 123.147 468.993 C 124.801 470.647, 126.525 472, 126.979 472 C 127.433 472, 127.141 469.863, 126.330 467.250 C 123.504 458.146, 125.815 449.054, 132.813 441.750 C 136.321 438.089, 136.348 438.001, 133.953 438.039 C 132.604 438.061, 130.128 438.676, 128.450 439.407 M 144.421 442.884 C 139.504 445.132, 136.379 448.880, 134.928 454.266 C 132.789 462.213, 136.191 472.857, 142.323 477.406 C 146.392 480.423, 161.689 480.450, 167.408 477.450 C 177.546 472.131, 177.265 458.893, 166.814 449.451 C 159.189 442.562, 150.620 440.049, 144.421 442.884" stroke="none" fill="#668c4d" fill-rule="evenodd"/>
</svg>