<svg xmlns="http://www.w3.org/2000/svg" width="512" height="512" viewBox="0 0 512 512" version="1.1">
	<path d="M 241 28.015 C 175.325 33.519, 108.398 69.464, 72.526 118.497 C 54.762 142.777, 40.728 172.485, 33.441 201.234 C 27.176 225.947, 25.752 258.538, 29.897 282.310 C 35.454 314.172, 47.223 343.220, 66.439 372.500 C 99.800 423.334, 146.564 453.199, 211.993 465.459 C 220.676 467.086, 224.105 468.593, 243.093 479.124 C 248.920 482.356, 254.410 485, 255.295 485 C 256.800 485, 276.871 473.749, 285.283 468.191 C 288.181 466.275, 291.569 465.371, 299.783 464.320 C 335.903 459.697, 377.580 441.140, 406.500 416.804 C 429.365 397.564, 446.584 374.826, 462.013 343.500 C 489.886 286.910, 491.996 231.497, 468.508 173 C 442.540 108.325, 395.582 63.988, 327.878 40.218 C 299.565 30.278, 267.589 25.786, 241 28.015 M 269 48.293 C 269.275 48.583, 276.925 52.036, 286 55.966 C 310.183 66.438, 321.469 72.911, 336.197 84.754 L 342.893 90.139 338.311 96.320 C 332.268 104.469, 329.022 111.555, 329.010 116.622 C 328.994 123.086, 333.636 139.827, 337.493 147.223 C 342.176 156.200, 342.046 159.136, 336.432 171.146 L 331.864 180.919 333.465 187.209 C 334.346 190.669, 337.068 197.623, 339.513 202.662 C 343.477 210.831, 344.995 212.782, 353.520 220.662 C 358.779 225.523, 364.620 231.799, 366.500 234.609 C 371.059 241.420, 374.655 252.649, 375.509 262.743 C 376.102 269.743, 376.643 271.534, 379.101 274.627 C 380.693 276.630, 382.452 280.121, 383.010 282.385 C 386.395 296.121, 386.746 296.388, 401.541 296.455 C 412.702 296.505, 415.446 297.559, 418.680 303.037 C 420.512 306.140, 427.131 309.854, 437.315 313.494 C 441.111 314.851, 442.729 316.177, 444.960 319.761 L 447.790 324.308 449.289 321.404 C 451.702 316.731, 457.817 296.320, 459.965 285.770 C 461.055 280.419, 462.485 269.956, 463.143 262.520 C 466.884 220.269, 452.702 169.369, 427 132.797 C 419.622 122.299, 402.996 104.595, 392.288 95.834 C 361.225 70.420, 318.564 52.425, 282.500 49.524 C 278.100 49.170, 273.150 48.630, 271.500 48.323 C 269.850 48.017, 268.725 48.003, 269 48.293 M 204.750 49.745 C 193.927 50.157, 193.120 51.993, 203.750 52.020 C 208.012 52.031, 214.382 52.457, 217.904 52.966 C 222.931 53.693, 224.907 53.582, 227.091 52.453 C 233.894 48.935, 232.009 48.706, 204.750 49.745 M 168.023 69.047 C 130.749 81.963, 95.921 111.123, 75.514 146.500 C 47.721 194.683, 41.135 248.588, 56.699 300.500 C 61.307 315.868, 64.417 323, 66.511 323 C 70.862 323, 73.285 319.320, 76.404 307.980 C 78.587 300.041, 83.243 293.660, 90.811 288.233 C 94.440 285.630, 98.893 282.083, 100.705 280.350 C 103.800 277.392, 104.001 276.783, 104.017 270.350 C 104.050 257.547, 108.357 243.292, 115.359 232.814 C 117.312 229.892, 122.296 223.675, 126.433 219 C 135.550 208.699, 139.620 201.384, 141.586 191.765 C 142.403 187.769, 143.968 183.375, 145.063 182 C 152.852 172.225, 155 166.201, 155 154.132 C 155 142.363, 150.785 132.989, 139.963 120.695 C 136.324 116.561, 136.050 115.926, 137.666 115.366 C 157.261 108.575, 175.369 90.213, 182.554 69.847 L 183.911 66 180.206 66.055 C 178.168 66.085, 172.685 67.432, 168.023 69.047 M 267.413 69.065 C 245.489 74.176, 219.910 83.427, 205.954 91.291 C 201.441 93.835, 200.284 94.895, 201.508 95.365 C 204.592 96.548, 207.478 95.994, 217 92.390 C 230.515 87.274, 243.588 83.305, 258 79.941 C 276.807 75.552, 274.630 72.940, 275.345 100.750 C 275.681 113.813, 276.222 125.850, 276.548 127.500 L 277.141 130.500 266.262 130.668 C 252.612 130.878, 235.140 133.250, 219.095 137.070 C 212.272 138.694, 206.493 139.826, 206.252 139.586 C 206.012 139.345, 206.588 136.527, 207.532 133.324 C 209.831 125.527, 209.874 115.465, 207.628 111.193 C 206.672 109.374, 203.801 106.562, 201.249 104.943 C 197.514 102.574, 195.498 102, 190.917 102 C 186.131 102, 184.476 102.517, 180.508 105.250 C 177.914 107.037, 174.869 110.002, 173.742 111.838 L 171.692 115.176 176.271 111.948 C 182.386 107.638, 188.969 106.923, 194.863 109.930 C 203.671 114.424, 205.039 121.994, 199.864 137.602 C 198.139 142.804, 196.948 147.281, 197.218 147.551 C 197.488 147.821, 203.171 146.708, 209.847 145.077 C 231.649 139.754, 246.030 137.766, 267.500 137.111 C 290.639 136.404, 289.453 137.128, 286.534 125.488 C 285.646 121.947, 284.097 107.533, 283.093 93.458 C 282.088 79.382, 280.869 67.502, 280.383 67.057 C 279.897 66.611, 274.061 67.515, 267.413 69.065 M 251 92.701 C 241.684 94.297, 213 102.488, 213 103.551 C 213 103.764, 214.012 105.865, 215.250 108.219 C 217.052 111.647, 217.511 114.193, 217.556 121 C 217.586 125.675, 217.699 129.785, 217.806 130.134 C 217.912 130.482, 221.262 130.130, 225.250 129.350 C 229.238 128.570, 239.675 126.795, 248.444 125.406 C 257.213 124.016, 264.810 122.617, 265.327 122.298 C 265.871 121.962, 266.060 117.027, 265.775 110.583 C 265.013 93.322, 262.826 90.674, 251 92.701 M 185.571 117.571 C 182.374 120.769, 184.326 125, 189 125 C 192.003 125, 194 123.351, 194 120.871 C 194 118.597, 191.334 116, 189 116 C 187.979 116, 186.436 116.707, 185.571 117.571 M 253 143.590 C 219.352 147.581, 205.749 151.365, 180.053 163.884 C 175.407 166.148, 170.907 168.029, 170.053 168.063 C 169.133 168.101, 169.451 168.508, 170.833 169.062 C 173.793 170.248, 176.674 169.525, 186 165.250 C 217.355 150.880, 237.225 147.253, 278.890 148.295 C 303.150 148.902, 306.401 148.285, 294.340 145.366 C 288.635 143.985, 260.033 142.756, 253 143.590 M 241.749 158.061 C 228.142 159.455, 208.011 165.132, 204.608 168.534 C 202.589 170.554, 201.616 186.009, 202.974 194.500 C 204.344 203.068, 207.161 209.134, 212.415 214.834 C 218.620 221.566, 223.038 223.465, 232.500 223.468 C 243.159 223.471, 248.294 221.099, 256.378 212.438 C 261.520 206.930, 263.158 205.789, 266.571 205.331 C 269.938 204.879, 271.141 205.217, 273.559 207.297 L 276.478 209.808 271.886 209.291 C 266.603 208.695, 263 210.193, 263 212.985 C 263 215.678, 265.565 216.803, 270.447 216.253 C 273.632 215.894, 275.867 216.406, 279.784 218.391 C 285.926 221.503, 290.354 221.692, 294.723 219.027 C 299.292 216.241, 299.798 213.037, 296.545 207.486 C 295.025 204.893, 293.002 198.766, 291.833 193.220 C 290.707 187.874, 288.936 182.016, 287.898 180.202 C 286.029 176.937, 286.032 176.876, 288.151 174.009 C 289.946 171.582, 290.192 170.268, 289.673 165.883 C 289.332 163.007, 288.630 160.230, 288.114 159.714 C 286.784 158.384, 278 157.517, 278 158.716 C 278 159.253, 278.765 161.224, 279.699 163.096 C 282.535 168.778, 281.953 172.739, 277.708 176.629 C 274.534 179.538, 273.924 180.818, 273.357 185.756 C 272.645 191.955, 271.889 192.961, 267.925 192.985 C 266.509 192.993, 260.665 194.628, 254.939 196.617 C 246.079 199.696, 243.654 200.156, 238.660 199.703 C 231.976 199.097, 225.399 195.253, 220.750 189.237 C 216.077 183.189, 217.647 182.623, 224.250 187.977 C 227.688 190.764, 232.300 193.536, 234.500 194.137 C 238.724 195.292, 249.817 194.770, 253.954 193.223 L 256.408 192.305 253.466 190.895 C 249.676 189.078, 249.272 186.640, 251.966 181.848 C 253.925 178.362, 253.974 177.927, 252.479 177.354 C 251.569 177.004, 246.932 177.018, 242.175 177.383 C 235.374 177.906, 232.726 178.577, 229.784 180.524 C 225.263 183.516, 224.804 183.546, 222.500 181 C 221.505 179.900, 219.860 179, 218.845 179 C 216.508 179, 216.517 177.292, 218.885 171.769 C 222.580 163.149, 231.033 159.273, 239.500 162.316 C 241.700 163.107, 247.295 166.064, 251.933 168.888 C 262.993 175.621, 266.925 176.693, 271.801 174.304 C 273.827 173.312, 276.068 171.375, 276.781 170 C 278.110 167.438, 277.821 160.387, 276.329 158.972 C 274.996 157.709, 251.286 157.084, 241.749 158.061 M 292.334 163.419 C 293.259 170.170, 294.909 173.002, 297.911 172.989 C 299.335 172.983, 304.967 170.504, 310.426 167.480 L 320.351 161.981 322.676 164.165 C 324.463 165.845, 325 165.998, 325 164.829 C 325 163.994, 324.053 162.453, 322.895 161.405 C 321.054 159.739, 318.971 159.475, 306.266 159.297 L 291.741 159.093 292.334 163.419 M 312.303 169.766 C 311.514 170.285, 311.423 171.055, 312.037 172.026 C 313.917 174.999, 313.129 180.962, 310.510 183.581 C 307.962 186.129, 308.332 186.792, 312.500 187.147 C 318.873 187.689, 320.365 186.278, 322.371 177.810 C 323.464 173.196, 316.072 167.291, 312.303 169.766 M 185.186 176.865 C 184.183 177.500, 184.023 179.692, 184.510 186.099 C 185.680 201.475, 180.982 216.718, 170.981 230 C 168.703 233.025, 166.182 236.850, 165.378 238.500 C 163.919 241.495, 163.921 241.494, 166.958 238.038 L 170 234.576 169.999 249.038 C 169.998 263.043, 169.903 263.701, 166.987 269.866 C 159.676 285.320, 141.630 296.206, 109.598 304.486 C 94.656 308.348, 97.485 309.419, 113.476 305.954 C 142.686 299.626, 160.596 288.689, 168.742 272.207 C 172.448 264.709, 172.481 264.531, 172.989 249.526 L 173.500 234.403 177.697 227.951 C 187.959 212.178, 191.909 195.896, 189.189 180.582 C 188.459 176.476, 187.381 175.475, 185.186 176.865 M 171.500 180.960 C 165.545 182.976, 164.187 185.196, 163.336 194.308 C 162.860 199.398, 163.194 202.073, 164.970 207.409 C 167.146 213.950, 167.177 215.372, 165.328 224 C 164.879 226.090, 165.234 225.871, 167.491 222.663 C 170.987 217.694, 174.868 209.173, 176.602 202.661 C 178.052 197.214, 178.526 180.417, 177.250 179.692 C 176.838 179.458, 174.250 180.028, 171.500 180.960 M 154.200 186.200 C 152.790 187.610, 152.615 196.843, 153.958 198.966 C 154.703 200.145, 155.085 199.907, 155.903 197.755 C 156.463 196.283, 157.222 192.811, 157.589 190.039 C 158.122 186.026, 157.967 185, 156.829 185 C 156.043 185, 154.860 185.540, 154.200 186.200 M 298 193.537 C 298 194.511, 299.559 198.095, 301.464 201.502 C 305.817 209.285, 306.795 214.701, 304.631 219.039 C 303.751 220.801, 303.282 222.647, 303.587 223.140 C 303.892 223.634, 306.360 225.162, 309.071 226.536 L 314 229.034 314.118 224.767 C 314.320 217.487, 315.308 214.500, 317.512 214.500 C 319.065 214.500, 319.985 213.077, 321.715 208 C 324.442 199.994, 324.537 196.885, 322.144 193.930 C 320.434 191.818, 320.039 191.741, 317.108 192.955 C 314.065 194.216, 307.891 194.002, 300.750 192.388 C 298.552 191.891, 298 192.122, 298 193.537 M 147.500 223.691 C 145.300 226.730, 140.933 232.186, 137.796 235.816 C 134.658 239.446, 130.985 244.460, 129.632 246.958 C 126.906 251.993, 124.516 262.916, 125.848 264.248 C 126.319 264.719, 128.878 260.067, 131.559 253.862 C 134.363 247.375, 139.771 237.617, 144.348 230.784 C 152.510 218.601, 154.612 213.869, 147.500 223.691 M 345 223.350 C 345 223.616, 349.945 228.733, 355.988 234.723 C 366.363 245.005, 367.815 245.578, 360.495 236.500 C 357.563 232.864, 345 222.202, 345 223.350 M 258 227.874 C 254.975 228.846, 247.902 232.006, 242.283 234.896 C 233.603 239.361, 231.723 240.772, 229.783 244.277 C 228.140 247.247, 225.958 249.215, 222 251.298 C 217.159 253.846, 215.805 254.122, 210.697 253.606 C 203.717 252.901, 203.937 254.306, 211.074 256.018 C 217.383 257.531, 222.244 256.802, 226.343 253.727 C 231.798 249.634, 232.030 249.598, 231.360 252.950 C 231.024 254.628, 231.009 256, 231.324 256 C 231.640 256, 233.947 253.130, 236.450 249.622 C 238.954 246.114, 241.752 242.626, 242.670 241.872 C 244.176 240.633, 244.279 240.790, 243.739 243.500 C 243.409 245.150, 242.835 247.287, 242.463 248.250 C 241.107 251.756, 243.956 249.846, 250.294 243 C 253.858 239.150, 257.019 236, 257.317 236 C 258.020 236, 256.560 241.085, 255.045 243.916 C 254.399 245.123, 254.040 246.621, 254.248 247.244 C 254.456 247.867, 257.291 244.692, 260.548 240.189 C 263.806 235.685, 266.845 232, 267.303 232 C 268.254 232, 267.384 235.246, 265.373 239.200 C 263.397 243.086, 263.652 243.417, 266.750 240.997 C 270.449 238.107, 273.989 232.123, 273.995 228.750 C 274 226.092, 273.825 226.002, 268.750 226.054 C 265.863 226.083, 261.025 226.903, 258 227.874 M 296.532 230.164 C 298.302 235.894, 303.204 242.776, 308.976 247.633 C 311.814 250.022, 312.133 250.117, 311.151 248.283 C 309.109 244.467, 308.028 241, 308.880 241 C 309.337 241, 311.593 243.684, 313.895 246.965 C 318.543 253.592, 320.603 255.475, 319.540 252.125 C 318.651 249.324, 319.359 249.434, 325.154 253 C 327.836 254.650, 330.631 256, 331.365 256 C 333.182 256, 341 250.250, 341 248.914 C 341 248.207, 339.893 248.113, 337.750 248.638 C 330.805 250.342, 322.999 248.036, 318.500 242.953 C 316.660 240.874, 303.661 232.008, 298.155 229.077 C 295.955 227.905, 295.855 227.972, 296.532 230.164 M 341.132 231.636 C 341.334 232.261, 345.764 237.211, 350.975 242.636 C 357.048 248.959, 359.278 250.861, 357.187 247.934 C 353.765 243.144, 340.497 229.675, 341.132 231.636 M 278.500 245.940 C 268.963 248.279, 250.817 260.211, 245.732 267.487 C 242.796 271.689, 240.579 273.532, 235.296 276.161 C 226.596 280.491, 224.454 283.888, 224.615 293.098 C 224.679 296.727, 225.227 300.552, 225.835 301.598 C 226.856 303.356, 226.943 303.311, 226.992 301 C 227.060 297.717, 230.201 290.895, 232.515 289 C 234.222 287.602, 234.295 287.670, 233.582 290 C 232.287 294.232, 231.685 304, 232.719 304 C 233.247 304, 234.282 302.762, 235.018 301.250 C 236.355 298.505, 236.359 298.510, 237.056 303.639 C 237.440 306.466, 238.955 310.966, 240.422 313.639 C 243.469 319.194, 248.605 325.728, 249.343 324.990 C 249.617 324.717, 248.510 321.374, 246.884 317.562 C 244.025 310.860, 241.425 301.853, 242.863 303.629 C 243.251 304.108, 245.298 307.092, 247.412 310.260 C 249.527 313.427, 254.353 319.487, 258.138 323.725 C 265.654 332.142, 270.402 335.869, 265.656 329.627 C 254.609 315.098, 249 304.455, 249 298.022 C 249 293.326, 250.519 293.747, 251.846 298.809 C 252.928 302.935, 260.637 315.998, 261.992 316.001 C 262.271 316.002, 262.500 310.978, 262.500 304.837 C 262.500 296.794, 262.850 293.554, 263.750 293.252 C 264.626 292.959, 265 294.170, 265 297.302 C 265 299.760, 265.632 303.274, 266.405 305.112 L 267.810 308.454 269.040 302.202 C 269.716 298.764, 270.619 295.735, 271.047 295.471 C 271.474 295.207, 272.716 297.805, 273.806 301.245 L 275.789 307.500 275.997 297.500 C 276.228 286.331, 276.277 286.415, 280.512 305.250 C 281.965 311.712, 283.548 317, 284.031 317 C 285.574 317, 286.503 309.813, 286.388 298.776 C 286.326 292.878, 286.614 288.261, 287.028 288.517 C 287.442 288.773, 288.567 292.194, 289.529 296.120 C 291.706 305.002, 291.095 318.511, 288.086 328 C 285.675 335.606, 285.783 335, 286.839 335 C 288.355 335, 298.764 319.656, 302.412 312.043 C 304.378 307.941, 306.272 302.429, 306.622 299.793 C 307.567 292.668, 309.314 293.837, 308.799 301.250 C 308.556 304.752, 307.207 310.358, 305.731 314 L 303.097 320.500 305.605 317.500 C 309.270 313.115, 312.855 305.757, 313.603 301.083 C 313.962 298.837, 314.640 297, 315.109 297 C 316.978 297, 317.033 301.973, 315.223 307.336 C 314.171 310.451, 313.475 313, 313.677 313 C 313.879 313, 315.372 310.906, 316.995 308.347 C 319.291 304.726, 320.087 304.064, 320.585 305.362 C 320.937 306.279, 320.992 307.923, 320.706 309.015 C 319.891 312.132, 321.619 311.335, 323.023 307.945 C 323.874 305.890, 324.106 302.208, 323.732 296.695 C 323.224 289.210, 323.294 288.760, 324.543 291.500 C 325.295 293.150, 325.959 295.850, 326.018 297.500 L 326.127 300.500 327.146 298 C 328.726 294.126, 327.671 285.752, 325.159 282.223 C 323.576 280, 321.422 278.683, 317.504 277.544 C 313.427 276.359, 311.353 275.049, 309.276 272.348 C 299.514 259.649, 295.976 257.542, 285.556 258.223 C 277.866 258.725, 272.352 260.996, 266.638 266.013 C 263.799 268.505, 263.117 268.747, 262.613 267.435 C 261.756 265.201, 263.284 262.800, 268.467 258.238 C 276.245 251.392, 288.053 249.391, 296.105 253.554 C 299.757 255.443, 299.823 254.163, 296.250 250.740 C 291.154 245.859, 285.295 244.274, 278.500 245.940 M 195.433 292.250 C 195.780 295.688, 196.567 301.404, 197.183 304.953 C 198.190 310.757, 198.127 311.512, 196.548 312.453 C 188.357 317.339, 185.846 319.242, 186.614 319.985 C 188.504 321.813, 200.814 325.271, 207 325.712 C 215.362 326.307, 217.516 324.920, 217.362 319.042 C 217.187 312.368, 208.976 298.283, 199.994 289.250 C 198.217 287.462, 196.322 286, 195.783 286 C 195.181 286, 195.046 288.408, 195.433 292.250 M 389.752 307.716 C 387.909 307.995, 386.862 308.851, 386.571 310.316 C 386.332 311.517, 385.615 315.425, 384.979 319 C 381.470 338.705, 367.145 360.084, 347.217 375.353 C 337.103 383.104, 323.777 390.487, 308.118 397.018 C 300.078 400.371, 289.140 404.927, 283.811 407.142 C 278.482 409.357, 270.264 413.381, 265.549 416.084 C 260.834 418.788, 256.497 421, 255.913 421 C 255.328 421, 251.846 417.908, 248.175 414.128 C 238.777 404.453, 227.700 397.644, 199.786 384.385 C 153.984 362.629, 144.522 356.054, 135.190 339.500 L 131.243 332.500 122.372 330.810 C 108.796 328.224, 109.637 327.892, 110.255 335.589 C 111.066 345.694, 116.242 355.246, 126.893 366.294 C 131.622 371.200, 136.801 376.146, 138.402 377.286 L 141.313 379.359 140.609 374.930 C 140.221 372.493, 139.633 369.411, 139.301 368.080 C 138.800 366.069, 139.347 366.379, 142.542 369.914 C 151.246 379.549, 166.498 387.734, 197.985 399.667 C 225.447 410.075, 236.298 416.229, 248.240 428.171 L 255.399 435.330 259.449 433.041 C 272.760 425.520, 281.361 421.378, 296.687 415.111 C 332.379 400.517, 351.248 388.720, 372.034 368.005 C 387.741 352.351, 396.611 338.138, 399.616 323.809 C 401.344 315.565, 400.404 309.822, 397.030 308.016 C 395.108 306.988, 394.677 306.970, 389.752 307.716 M 425.667 320.667 C 425.300 321.033, 425 323.035, 425 325.115 C 425 334.421, 417.037 352.063, 406.021 367.160 C 403.277 370.922, 401.416 374, 401.887 374 C 404.014 374, 418.881 363.263, 423.704 358.243 C 430.135 351.551, 436.097 340.046, 436.771 333.030 C 437.351 326.993, 435.454 323.505, 430.454 321.416 C 426.545 319.783, 426.550 319.784, 425.667 320.667 M 83.844 326.192 C 77.667 331.560, 77.240 339.214, 82.528 349.784 C 86.517 357.757, 93.645 364.983, 104.658 372.220 C 111.007 376.392, 122.582 383, 123.541 383 C 123.771 383, 121.093 379.451, 117.591 375.113 C 104.974 359.484, 99.130 347.288, 98.255 334.754 C 97.958 330.494, 97.171 326.557, 96.506 326.005 C 95.842 325.454, 93.319 324.751, 90.899 324.444 C 87.253 323.980, 86.046 324.280, 83.844 326.192 M 179 327.494 C 179 328.315, 180.883 330.352, 183.185 332.019 C 187.117 334.867, 190.239 335.991, 212.270 342.490 C 217.094 343.913, 224.406 346.818, 228.520 348.947 C 232.634 351.076, 236 352.635, 236 352.412 C 236 352.188, 234.339 350.168, 232.310 347.921 C 227.858 342.994, 220.535 339.157, 208.492 335.441 C 203.546 333.916, 195.579 331.167, 190.788 329.334 C 181.102 325.628, 179 325.299, 179 327.494 M 158.500 332.570 C 155.750 333.335, 152.064 333.970, 150.309 333.981 C 148.554 333.991, 146.877 334.389, 146.583 334.865 C 145.753 336.209, 151.738 344.618, 156.348 348.584 C 163.147 354.432, 172.082 358.868, 196.845 368.689 C 231.900 382.592, 240.397 387.643, 250.564 400.624 C 253.742 404.681, 256.610 408, 256.939 408 C 257.267 408, 259.111 406.930, 261.035 405.622 C 262.960 404.314, 270.586 399.814, 277.982 395.622 C 285.378 391.430, 290.837 388, 290.112 388 C 287.188 388, 270.341 394.271, 264.521 397.526 C 261.104 399.437, 257.609 401, 256.754 401 C 255.641 401, 254.742 398.945, 253.584 393.750 C 251.575 384.743, 247.373 377.250, 241.784 372.708 C 236.411 368.342, 223.422 361.823, 205.429 354.460 C 184.400 345.856, 179.134 343.031, 172.405 336.750 C 169.017 333.587, 165.627 331.040, 164.873 331.089 C 164.118 331.139, 161.250 331.805, 158.500 332.570 M 398.333 389.407 C 391.386 393.379, 360 415.602, 360 416.549 C 360 417.800, 377.584 408.446, 385.601 402.931 C 390.076 399.852, 404.054 387.090, 403 387.045 C 402.725 387.034, 400.625 388.096, 398.333 389.407 M 116 393.437 C 132.741 410.852, 153.589 421.540, 191.310 432.047 C 230.820 443.053, 236.294 445.388, 246.865 455.750 C 250.372 459.188, 253.376 462, 253.540 462 C 254.249 462, 251.582 454.124, 249.477 450 C 243.603 438.493, 231.648 430.953, 207.500 423.525 C 180.485 415.215, 168.176 410.302, 154.938 402.543 C 150.689 400.053, 145.596 398.170, 139.544 396.853 C 131.806 395.170, 119.590 391.409, 112.500 388.529 C 111.400 388.082, 112.975 390.290, 116 393.437" stroke="none" fill="#668c4d" fill-rule="evenodd"/>
</svg>